<?xml version="1.0" encoding="UTF-8" standalone="no"?>
<svg
   width="20"
   height="20"
   viewBox="0 0 20 20"
   fill="none"
   version="1.1"
   id="svg1"
   sodipodi:docname="CascadeFields_SaveJSON.svg"
   inkscape:export-filename="CascadeFields_SaveJSON_24.png"
   inkscape:export-xdpi="115.2"
   inkscape:export-ydpi="115.2"
   inkscape:version="1.3 (0e150ed6c4, 2023-07-21)"
   xmlns:inkscape="http://www.inkscape.org/namespaces/inkscape"
   xmlns:sodipodi="http://sodipodi.sourceforge.net/DTD/sodipodi-0.dtd"
   xmlns="http://www.w3.org/2000/svg"
   xmlns:svg="http://www.w3.org/2000/svg">
  <defs
     id="defs1" />
  <sodipodi:namedview
     id="namedview1"
     pagecolor="#ffffff"
     bordercolor="#000000"
     borderopacity="0.25"
     inkscape:showpageshadow="2"
     inkscape:pageopacity="0.0"
     inkscape:pagecheckerboard="0"
     inkscape:deskcolor="#d1d1d1"
     inkscape:zoom="94.65"
     inkscape:cx="10"
     inkscape:cy="10"
     inkscape:window-width="3840"
     inkscape:window-height="2089"
     inkscape:window-x="-8"
     inkscape:window-y="-8"
     inkscape:window-maximized="1"
     inkscape:current-layer="svg1" />
  <path
     d="M6 2C4.89543 2 4 2.89543 4 4V9H5V4C5 3.44772 5.44772 3 6 3H10V6.5C10 7.32843 10.6716 8 11.5 8H15V16C15 16.5523 14.5523 17 14 17H11V18H14C15.1046 18 16 17.1046 16 16V7.41421C16 7.01639 15.842 6.63486 15.5607 6.35355L11.6464 2.43934C11.3651 2.15804 10.9836 2 10.5858 2H6ZM14.7929 7H11.5C11.2239 7 11 6.77614 11 6.5V3.20711L14.7929 7ZM4 10H7V12H4V10ZM2 10H3V12.5C3 12.7761 3.22386 13 3.5 13H7.5C7.77614 13 8 12.7761 8 12.5V10.0898C8.10799 10.139 8.20739 10.2074 8.29289 10.2929L9.70711 11.7071C9.89464 11.8946 10 12.149 10 12.4142V18C10 18.5523 9.55228 19 9 19V14.5C9 14.2239 8.77614 14 8.5 14H2.5C2.22386 14 2 14.2239 2 14.5V19C1.44772 19 1 18.5523 1 18V11C1 10.4477 1.44772 10 2 10ZM8 15V19H3V15H8Z"
     fill="#212121"
     id="path1" />
</svg>
