<?xml version="1.0" encoding="UTF-8" standalone="no"?>
<svg
   width="48"
   height="48"
   viewBox="0 0 48 48"
   fill="none"
   version="1.1"
   id="svg1"
   sodipodi:docname="CascadeFields_AddRelationship.svg"
   inkscape:version="1.3 (0e150ed6c4, 2023-07-21)"
   inkscape:export-filename="CascadeFields_AddRelationship.png"
   inkscape:export-xdpi="32"
   inkscape:export-ydpi="32"
   xmlns:inkscape="http://www.inkscape.org/namespaces/inkscape"
   xmlns:sodipodi="http://sodipodi.sourceforge.net/DTD/sodipodi-0.dtd"
   xmlns="http://www.w3.org/2000/svg"
   xmlns:svg="http://www.w3.org/2000/svg">
  <defs
     id="defs1" />
  <sodipodi:namedview
     id="namedview1"
     pagecolor="#ffffff"
     bordercolor="#000000"
     borderopacity="0.25"
     inkscape:showpageshadow="2"
     inkscape:pageopacity="0.0"
     inkscape:pagecheckerboard="0"
     inkscape:deskcolor="#d1d1d1"
     inkscape:zoom="39.4375"
     inkscape:cx="24"
     inkscape:cy="24"
     inkscape:window-width="3840"
     inkscape:window-height="2089"
     inkscape:window-x="-8"
     inkscape:window-y="-8"
     inkscape:window-maximized="1"
     inkscape:current-layer="svg1" />
  <path
     d="m 23.9982,4 c -4.1428,0 -7.5011,3.35835 -7.5011,7.5011 0,3.7169 2.7034,6.8023 6.2511,7.3974 v 4.1014 H 15.249 c -2.0709,0 -3.7497,1.6788 -3.7497,3.7498 v 2.3521 C 7.95242,29.6977 5.25,32.7827 5.25,36.4989 5.25,40.6416 8.60835,44 12.7511,44 c 4.1427,0 7.5011,-3.3584 7.5011,-7.5011 0,-3.7175 -2.7043,-6.8034 -6.2529,-7.3977 v -2.3515 c 0,-0.6903 0.5595,-1.2498 1.2497,-1.2498 h 17.4985 c 0.6903,0 1.2498,0.5595 1.2498,1.2498 h 2.5 c 0,-2.071 -1.6788,-3.7498 -3.7498,-3.7498 H 25.2482 V 18.8985 C 28.796,18.3033 31.4993,15.2179 31.4993,11.5011 31.4993,7.35835 28.1409,4 23.9982,4 Z m -5.0011,7.5011 c 0,-2.76203 2.239,-5.0011 5.0011,-5.0011 2.762,0 5.0011,2.23907 5.0011,5.0011 0,2.762 -2.2391,5.0011 -5.0011,5.0011 -2.7621,0 -5.0011,-2.2391 -5.0011,-5.0011 z M 7.75,36.4989 c 0,-2.762 2.23907,-5.0011 5.0011,-5.0011 2.762,0 5.0011,2.2391 5.0011,5.0011 0,2.762 -2.2391,5.0011 -5.0011,5.0011 C 9.98907,41.5 7.75,39.2609 7.75,36.4989 Z"
     fill="#212121"
     id="path1"
     sodipodi:nodetypes="ssccsscssscsssccsccssssssssssss"
     style="fill:#000000;fill-opacity:1" />
  <path
     id="rect1"
     style="fill:#ffffff;stroke:#000000;stroke-width:1.7167;stroke-linecap:round;stroke-linejoin:round;stroke-dasharray:none"
     d="m 32.455645,29.653713 c -0.02023,0 -0.03595,0.01638 -0.03595,0.03741 v 4.704902 h -4.334123 c -0.02023,0 -0.03595,0.01638 -0.03595,0.03742 v 4.958348 c 0,0.02105 0.01573,0.03912 0.03595,0.03912 h 4.334118 v 3.765963 c 0,0.02105 0.01573,0.03742 0.03595,0.03742 h 4.765568 c 0.02023,0 0.03595,-0.01638 0.03595,-0.03742 v -3.765963 h 3.804609 c 0.02023,0 0.03595,-0.01807 0.03595,-0.03912 v -4.958348 c 0,-0.02105 -0.01573,-0.03742 -0.03595,-0.03742 h -3.804609 v -4.704902 c 0,-0.02105 -0.01574,-0.03741 -0.03595,-0.03741 z" />
</svg>
