<?xml version="1.0" encoding="UTF-8" standalone="no"?>
<svg
   width="48"
   height="48"
   viewBox="0 0 48 48"
   fill="none"
   version="1.1"
   id="svg1"
   sodipodi:docname="CascadeFields_Filled.svg"
   inkscape:export-filename="CascadeFields_Filled.png"
   inkscape:export-xdpi="160"
   inkscape:export-ydpi="160"
   inkscape:version="1.3 (0e150ed6c4, 2023-07-21)"
   xmlns:inkscape="http://www.inkscape.org/namespaces/inkscape"
   xmlns:sodipodi="http://sodipodi.sourceforge.net/DTD/sodipodi-0.dtd"
   xmlns="http://www.w3.org/2000/svg"
   xmlns:svg="http://www.w3.org/2000/svg">
  <defs
     id="defs1" />
  <sodipodi:namedview
     id="namedview1"
     pagecolor="#ffffff"
     bordercolor="#000000"
     borderopacity="0.25"
     inkscape:showpageshadow="2"
     inkscape:pageopacity="0.0"
     inkscape:pagecheckerboard="0"
     inkscape:deskcolor="#d1d1d1"
     inkscape:zoom="39.4375"
     inkscape:cx="24"
     inkscape:cy="24"
     inkscape:window-width="3840"
     inkscape:window-height="2089"
     inkscape:window-x="-8"
     inkscape:window-y="-8"
     inkscape:window-maximized="1"
     inkscape:current-layer="svg1" />
  <g
     id="g3"
     style="fill:#0f0f0f;fill-opacity:1;stroke:#000000;stroke-opacity:1">
    <g
       id="g2"
       transform="translate(-0.12678248,0.07606973)"
       style="fill:#0f0f0f;fill-opacity:1;stroke:#000000;stroke-opacity:1">
      <ellipse
         style="fill:#0f0f0f;stroke:#000000;stroke-width:2.47049;stroke-linecap:round;stroke-linejoin:round;fill-opacity:1;stroke-opacity:1"
         id="path1-8"
         cx="9.9642954"
         cy="38.656849"
         rx="8.0618544"
         ry="7.6434703" />
      <ellipse
         style="fill:#0f0f0f;stroke:#000000;stroke-width:2.47049;stroke-linecap:round;stroke-linejoin:round;fill-opacity:1;stroke-opacity:1"
         id="path1-8-5"
         cx="37.696465"
         cy="38.544327"
         rx="8.0618544"
         ry="7.6434703" />
      <ellipse
         style="fill:#0f0f0f;stroke:#000000;stroke-width:2.47049;stroke-linecap:round;stroke-linejoin:round;fill-opacity:1;stroke-opacity:1"
         id="path1-8-56"
         cx="23.652092"
         cy="9.3446426"
         rx="8.0618544"
         ry="7.6434703" />
    </g>
    <path
       d="m 35.960646,25.169887 0.0235,-0.121988 c 0.07288,-0.530037 -0.184571,-1.04658 -0.730612,-1.188607 l -0.114023,-0.02504 c -0.495288,-0.0781 -0.977924,0.251808 -1.11072,0.781721 l -0.684808,2.164024 -5.157187,-9.557131 -0.06912,-0.111776 c -0.299898,-0.423882 -0.855299,-0.552559 -1.296793,-0.279881 -0.478263,0.295483 -0.641998,0.949797 -0.365996,1.46166 l 5.157921,9.558337 -2.455169,-0.896137 -0.114118,-0.02507 c -0.495192,-0.07806 -0.977925,0.251808 -1.110622,0.781752 -0.142945,0.570875 0.178901,1.137934 0.707107,1.310595 l 4.786043,1.564473 0.113998,0.02515 c 0.495315,0.07799 0.977997,-0.251674 1.110743,-0.781829 z"
       fill="#212121"
       id="path1-7"
       sodipodi:nodetypes="cccccccccccccssccsc"
       style="stroke-width:1.03445;fill:#0f0f0f;fill-opacity:1;stroke:#000000;stroke-opacity:1" />
    <path
       d="m 10.875553,24.930782 -0.0235,-0.124429 c -0.07288,-0.540646 0.184571,-1.067528 0.730612,-1.212397 l 0.114023,-0.02554 c 0.495288,-0.07966 0.977924,0.256848 1.11072,0.797368 l 0.684808,2.207336 5.157187,-9.748417 0.06912,-0.114014 c 0.299898,-0.432367 0.855299,-0.563619 1.296793,-0.285483 0.478263,0.301397 0.641998,0.968807 0.365996,1.490916 l -5.157921,9.749649 2.455169,-0.914074 0.114118,-0.02557 c 0.495192,-0.07963 0.977925,0.256848 1.110622,0.797399 0.142945,0.582301 -0.178901,1.16071 -0.707107,1.336827 l -4.786043,1.595786 -0.113998,0.02565 c -0.495315,0.07955 -0.977997,-0.256711 -1.110743,-0.797478 z"
       fill="#212121"
       id="path1-7-2"
       sodipodi:nodetypes="cccccccccccccssccsc"
       style="stroke-width:1.04476;fill:#0f0f0f;fill-opacity:1;stroke:#000000;stroke-opacity:1" />
  </g>
</svg>
